{
  "asset": {
    "version": "2.0",
    "generator": "L'Atelier de Constance - Mascotte Plant"
  },
  "scene": 0,
  "scenes": [
    {
      "name": "PlantScene",
      "nodes": [0]
    }
  ],
  "nodes": [
    {
      "name": "PlantMascotte",
      "mesh": 0,
      "translation": [0, 0, 0],
      "rotation": [0, 0, 0, 1],
      "scale": [1, 1, 1]
    }
  ],
  "meshes": [
    {
      "name": "PlantMesh",
      "primitives": [
        {
          "attributes": {
            "POSITION": 0,
            "NORMAL": 1
          },
          "indices": 2,
          "material": 0
        }
      ]
    }
  ],
  "materials": [
    {
      "name": "PlantMaterial",
      "pbrMetallicRoughness": {
        "baseColorFactor": [0.56, 0.63, 0.56, 1.0],
        "metallicFactor": 0.0,
        "roughnessFactor": 0.6
      }
    }
  ],
  "accessors": [
    {
      "bufferView": 0,
      "componentType": 5126,
      "count": 24,
      "type": "VEC3",
      "max": [1.0, 2.0, 1.0],
      "min": [-1.0, -1.0, -1.0]
    },
    {
      "bufferView": 1,
      "componentType": 5126,
      "count": 24,
      "type": "VEC3"
    },
    {
      "bufferView": 2,
      "componentType": 5123,
      "count": 36,
      "type": "SCALAR"
    }
  ],
  "bufferViews": [
    {
      "buffer": 0,
      "byteOffset": 0,
      "byteLength": 288,
      "target": 34962
    },
    {
      "buffer": 0,
      "byteOffset": 288,
      "byteLength": 288,
      "target": 34962
    },
    {
      "buffer": 0,
      "byteOffset": 576,
      "byteLength": 72,
      "target": 34963
    }
  ],
  "buffers": [
    {
      "byteLength": 648,
      "uri": "data:application/octet-stream;base64,"
    }
  ]
}
